# xmcd
#
# Track frame offsets:
#	150
#	33265
#	66297
#	83855
#	101300
#	125520
#	150005
#	181720
#
# Disc length: 2844 seconds
#
# Revision: 1
# Processed by: cddbd v1.5.1PL0 Copyright (c) Steve Scherf et al.
# Submitted via: audiograbber 1.83.01
#
DISCID=510b1a08
DTITLE=Stacy Mitchhart - Simple Medicine
DYEAR=1994
DGENRE=Blues
TTITLE0=Real Woman Blues
TTITLE1=Givin Me Reasons
TTITLE2=Baby, What You Want Me To Do
TTITLE3=I Intend To Take Your Place
TTITLE4=Last Night Was The Last Night
TTITLE5=Delta Blues Dr.
TTITLE6=Let's Straighten It Out
TTITLE7=Dirty Dishes
EXTD=
EXTT0=
EXTT1=
EXTT2=
EXTT3=
EXTT4=
EXTT5=
EXTT6=
EXTT7=
PLAYORDER=
